<?xml version="1.0" encoding="UTF-8" standalone="no"?>
<svg
   xmlns:dc="http://purl.org/dc/elements/1.1/"
   xmlns:cc="http://creativecommons.org/ns#"
   xmlns:rdf="http://www.w3.org/1999/02/22-rdf-syntax-ns#"
   xmlns:svg="http://www.w3.org/2000/svg"
   xmlns="http://www.w3.org/2000/svg"
   viewBox="0 0 826.43469 517.56531"
   height="517.56531"
   width="826.43469"
   xml:space="preserve"
   id="svg2"
   version="1.1"><metadata
     id="metadata8"><rdf:RDF><cc:Work
         rdf:about=""><dc:format>image/svg+xml</dc:format><dc:type
           rdf:resource="http://purl.org/dc/dcmitype/StillImage" /></cc:Work></rdf:RDF></metadata><defs
     id="defs6"><clipPath
       id="clipPath20"
       clipPathUnits="userSpaceOnUse"><path
         id="path18"
         d="M 0,388.174 H 619.826 V 0 H 0 Z" /></clipPath></defs><g
     transform="matrix(1.3333333,0,0,-1.3333333,0,517.56533)"
     id="g10"><path
       id="path12"
       style="fill:#ffffff;fill-opacity:1;fill-rule:nonzero;stroke:none"
       d="M 0,0 H 619.826 V 388.174 H 0 Z" /><g
       id="g14"><g
         clip-path="url(#clipPath20)"
         id="g16"><g
           transform="translate(105.1834,236.1292)"
           id="g22"><path
             id="path24"
             style="fill:#231f20;fill-opacity:1;fill-rule:nonzero;stroke:none"
             d="m 0,0 -43.745,-65.749 c -0.526,-0.877 -1.17,-1.49 -1.928,-1.841 -0.761,-0.351 -1.638,-0.526 -2.631,-0.526 -1.461,0 -2.835,0.482 -4.12,1.447 -1.286,0.964 -1.929,2.235 -1.929,3.813 0,0.408 0.058,0.877 0.176,1.402 0.116,0.526 0.379,1.053 0.789,1.579 l -0.088,-0.088 45.762,68.466 c 0.934,1.403 2.06,2.469 3.375,3.2 1.315,0.73 2.702,1.096 4.164,1.096 1.343,0 2.702,-0.351 4.076,-1.052 1.373,-0.701 2.556,-1.784 3.551,-3.244 l 45.849,-68.291 h -0.088 c 0.818,-1.17 1.227,-2.222 1.227,-3.156 0,-1.52 -0.628,-2.747 -1.885,-3.682 -1.257,-0.936 -2.616,-1.402 -4.076,-1.402 -0.936,0 -1.841,0.205 -2.718,0.613 -0.876,0.409 -1.577,1.052 -2.104,1.929 v -0.088 z" /></g><g
           transform="translate(165.1737,226.7489)"
           id="g26"><path
             id="path28"
             style="fill:#231f20;fill-opacity:1;fill-rule:nonzero;stroke:none"
             d="M 0,0 C 0,14.61 13.062,21.917 39.187,21.917 H 57.07 C 81.792,21.917 94.152,14.61 94.152,0 v -53.3 c 0,-3.274 -1.972,-4.909 -5.917,-4.909 -4.063,0 -6.092,1.635 -6.092,4.909 v 52.336 c 0,8.882 -7.793,13.325 -23.378,13.325 H 37.226 C 20.24,12.361 11.747,7.947 11.747,-0.876 V -53.3 c 0,-3.274 -2.016,-4.909 -6.049,-4.909 -3.8,0 -5.698,1.635 -5.698,4.909 z" /></g><g
           transform="translate(319.2078,236.1292)"
           id="g30"><path
             id="path32"
             style="fill:#231f20;fill-opacity:1;fill-rule:nonzero;stroke:none"
             d="m 0,0 -43.745,-65.749 c -0.526,-0.877 -1.17,-1.49 -1.928,-1.841 -0.761,-0.351 -1.638,-0.526 -2.631,-0.526 -1.461,0 -2.835,0.482 -4.12,1.447 -1.286,0.964 -1.929,2.235 -1.929,3.813 0,0.408 0.058,0.877 0.176,1.402 0.116,0.526 0.379,1.053 0.789,1.579 l -0.088,-0.088 45.762,68.466 c 0.934,1.403 2.06,2.469 3.375,3.2 1.315,0.73 2.702,1.096 4.164,1.096 1.343,0 2.702,-0.351 4.076,-1.052 1.373,-0.701 2.556,-1.784 3.551,-3.244 l 45.849,-68.291 h -0.088 c 0.818,-1.17 1.227,-2.222 1.227,-3.156 0,-1.52 -0.628,-2.747 -1.885,-3.682 -1.257,-0.936 -2.616,-1.402 -4.076,-1.402 -0.936,0 -1.841,0.205 -2.718,0.613 -0.876,0.409 -1.577,1.052 -2.104,1.929 v -0.088 z" /></g><g
           transform="translate(473.346,190.368)"
           id="g34"><path
             id="path36"
             style="fill:#231f20;fill-opacity:1;fill-rule:nonzero;stroke:none"
             d="m 0,0 c 0,-14.611 -13.033,-21.917 -39.099,-21.917 h -17.883 c -24.781,0 -37.17,7.306 -37.17,21.917 v 53.3 c 0,3.273 1.972,4.909 5.917,4.909 4.062,0 6.093,-1.636 6.093,-4.909 V 0.964 c 0,-8.884 7.792,-13.325 23.378,-13.325 h 21.626 c 16.927,0 25.391,4.412 25.391,13.237 V 53.3 c 0,3.273 2.017,4.909 6.049,4.909 C -1.899,58.209 0,56.573 0,53.3 Z" /></g><g
           transform="translate(561.1507,212.7225)"
           id="g38"><path
             id="path40"
             style="fill:#231f20;fill-opacity:1;fill-rule:nonzero;stroke:none"
             d="M 0,0 C 2.746,0 4.12,-1.623 4.12,-4.867 4.12,-7.993 2.746,-9.556 0,-9.556 h -60.226 c -3.507,0 -5.26,1.563 -5.26,4.689 0,3.244 1.753,4.867 5.26,4.867 z m -69.957,-24.546 c 0,-6.781 6.457,-10.169 19.374,-10.169 H 0 c 2.863,0 4.295,-1.609 4.295,-4.822 0,-3.156 -1.432,-4.734 -4.295,-4.734 h -51.021 c -20.632,0 -30.946,6.399 -30.946,19.199 v 40.764 c 0,13.15 10.665,19.725 31.998,19.725 h 13.938 c 2.747,0 4.121,-1.637 4.121,-4.91 0,-3.098 -1.374,-4.646 -4.121,-4.646 h -9.468 c -16.305,0 -24.458,-3.39 -24.458,-10.169 z" /></g><g
           transform="translate(546.1639,243.5721)"
           id="g42"><path
             id="path44"
             style="fill:#d93f91;fill-opacity:1;fill-rule:nonzero;stroke:none"
             d="m 0,0 c 0,-3.197 -1.958,-4.795 -5.87,-4.795 -3.869,0 -5.803,1.598 -5.803,4.795 0,3.058 1.934,4.587 5.803,4.587 C -1.958,4.587 0,3.058 0,0" /></g><g
           transform="translate(563.0379,243.5721)"
           id="g46"><path
             id="path48"
             style="fill:#d93f91;fill-opacity:1;fill-rule:nonzero;stroke:none"
             d="m 0,0 c 0,-3.197 -1.958,-4.795 -5.87,-4.795 -3.869,0 -5.803,1.598 -5.803,4.795 0,3.058 1.934,4.587 5.803,4.587 C -1.958,4.587 0,3.058 0,0" /></g></g></g></g></svg>